<svg width="1874" height="352" viewBox="0 0 1874 352" fill="none" xmlns="http://www.w3.org/2000/svg">
<path d="M450.663 272.236C434.462 272.236 419.419 269.809 405.533 264.954C391.878 259.867 381.232 253.509 373.595 245.88C370.123 242.181 368.619 238.019 369.082 233.395C369.776 228.54 372.09 224.61 376.025 221.604C380.653 217.905 385.166 216.402 389.564 217.096C394.192 217.558 398.127 219.523 401.367 222.991C405.301 227.384 411.55 231.545 420.113 235.476C428.908 239.175 438.628 241.025 449.274 241.025C462.697 241.025 472.881 238.828 479.824 234.435C486.998 230.043 490.701 224.378 490.933 217.442C491.164 210.506 487.808 204.495 480.865 199.409C474.153 194.322 461.772 190.161 443.72 186.924C420.345 182.3 403.334 175.364 392.688 166.116C382.274 156.868 377.066 145.54 377.066 132.13C377.066 120.339 380.538 110.629 387.481 102.999C394.424 95.1382 403.334 89.3583 414.212 85.6591C425.089 81.7287 436.429 79.7635 448.233 79.7635C463.507 79.7635 477.046 82.1911 488.85 87.0463C500.653 91.9015 510.026 98.6062 516.969 107.161C520.209 110.86 521.713 114.79 521.482 118.952C521.251 122.882 519.283 126.234 515.58 129.009C511.877 131.552 507.48 132.361 502.389 131.436C497.297 130.512 493.015 128.431 489.544 125.194C483.758 119.645 477.509 115.831 470.798 113.75C464.086 111.669 456.333 110.629 447.538 110.629C437.355 110.629 428.676 112.363 421.502 115.831C414.559 119.299 411.087 124.385 411.087 131.09C411.087 135.251 412.129 139.066 414.212 142.534C416.526 145.771 420.923 148.776 427.403 151.551C433.884 154.094 443.373 156.637 455.87 159.18C473.228 162.648 486.882 167.041 496.834 172.359C507.017 177.676 514.308 183.919 518.705 191.086C523.102 198.022 525.301 206.114 525.301 215.362C525.301 225.997 522.408 235.591 516.622 244.146C511.067 252.7 502.736 259.521 491.627 264.607C480.749 269.693 467.095 272.236 450.663 272.236Z" fill="white"/>
<path d="M570.42 352C565.328 352 561.047 350.266 557.575 346.798C554.335 343.561 552.715 339.4 552.715 334.313V176.173C552.946 157.909 557.228 141.494 565.56 126.928C573.891 112.363 585.232 100.918 599.581 92.5951C613.93 84.0407 630.13 79.7635 648.182 79.7635C666.466 79.7635 682.782 84.0407 697.131 92.5951C711.48 100.918 722.82 112.363 731.152 126.928C739.715 141.494 743.997 157.909 743.997 176.173C743.997 194.438 740.062 210.853 732.193 225.419C724.556 239.753 714.026 251.197 700.602 259.752C687.179 268.075 672.02 272.236 655.125 272.236C641.471 272.236 628.857 269.462 617.286 263.913C605.945 258.133 596.225 250.388 588.125 240.678V334.313C588.125 339.4 586.505 343.561 583.265 346.798C580.024 350.266 575.743 352 570.42 352ZM648.182 241.025C659.985 241.025 670.516 238.25 679.773 232.701C689.031 226.921 696.321 219.176 701.644 209.466C707.198 199.524 709.976 188.427 709.976 176.173C709.976 163.689 707.198 152.591 701.644 142.881C696.321 132.939 689.031 125.194 679.773 119.645C670.516 113.865 659.985 110.975 648.182 110.975C636.61 110.975 626.08 113.865 616.591 119.645C607.334 125.194 600.044 132.939 594.721 142.881C589.398 152.591 586.736 163.689 586.736 176.173C586.736 188.427 589.398 199.524 594.721 209.466C600.044 219.176 607.334 226.921 616.591 232.701C626.08 238.25 636.61 241.025 648.182 241.025Z" fill="white"/>
<path d="M796.46 152.244C796.46 138.372 799.816 126.003 806.528 115.137C813.471 104.039 822.728 95.2539 834.3 88.7803C845.872 82.3067 858.601 79.0699 872.487 79.0699C886.373 79.0699 896.672 81.3819 903.383 86.0059C910.326 90.3987 912.988 95.7163 911.368 101.959C910.674 105.195 909.285 107.739 907.202 109.588C905.351 111.207 903.152 112.247 900.606 112.709C898.06 113.172 895.283 113.056 892.274 112.363C877.463 109.357 864.155 109.126 852.352 111.669C840.549 114.212 831.175 118.952 824.232 125.888C817.521 132.824 814.165 141.609 814.165 152.244H796.46ZM796.807 270.849C791.253 270.849 786.971 269.462 783.963 266.688C780.954 263.682 779.45 259.289 779.45 253.509V98.4906C779.45 92.9419 780.954 88.6647 783.963 85.6591C786.971 82.6535 791.253 81.1507 796.807 81.1507C802.593 81.1507 806.875 82.6535 809.652 85.6591C812.661 88.4335 814.165 92.7107 814.165 98.4906V253.509C814.165 259.058 812.661 263.335 809.652 266.341C806.875 269.346 802.593 270.849 796.807 270.849Z" fill="white"/>
<path d="M1003.12 272.236C984.371 272.236 967.823 268.19 953.474 260.099C939.125 251.775 927.784 240.447 919.453 226.112C911.353 211.547 907.302 194.9 907.302 176.173C907.302 157.215 911.353 140.569 919.453 126.234C927.784 111.669 939.125 100.34 953.474 92.2483C967.823 83.9251 984.371 79.7635 1003.12 79.7635C1021.63 79.7635 1038.06 83.9251 1052.41 92.2483C1066.76 100.34 1077.99 111.669 1086.09 126.234C1094.42 140.569 1098.58 157.215 1098.58 176.173C1098.58 194.9 1094.53 211.547 1086.43 226.112C1078.33 240.447 1067.11 251.775 1052.76 260.099C1038.41 268.19 1021.86 272.236 1003.12 272.236ZM1003.12 241.025C1015.15 241.025 1025.8 238.25 1035.05 232.701C1044.31 227.153 1051.49 219.523 1056.58 209.813C1061.9 200.102 1064.56 188.889 1064.56 176.173C1064.56 163.457 1061.9 152.244 1056.58 142.534C1051.49 132.592 1044.31 124.847 1035.05 119.299C1025.8 113.75 1015.15 110.975 1003.12 110.975C991.082 110.975 980.436 113.75 971.179 119.299C961.921 124.847 954.631 132.592 949.308 142.534C943.985 152.244 941.323 163.457 941.323 176.173C941.323 188.889 943.985 200.102 949.308 209.813C954.631 219.523 961.921 227.153 971.179 232.701C980.436 238.25 991.082 241.025 1003.12 241.025Z" fill="white"/>
<path d="M1213.77 272.583C1197.8 272.583 1183.45 269.231 1170.72 262.526C1158.23 255.59 1148.27 245.533 1140.87 232.355C1133.69 219.176 1130.11 202.992 1130.11 183.803V98.4906C1130.11 93.4043 1131.73 89.2427 1134.97 86.0059C1138.44 82.5379 1142.72 80.8039 1147.81 80.8039C1152.9 80.8039 1157.07 82.5379 1160.31 86.0059C1163.78 89.2427 1165.52 93.4043 1165.52 98.4906V183.803C1165.52 196.75 1167.95 207.501 1172.81 216.055C1177.67 224.378 1184.26 230.621 1192.59 234.782C1200.93 238.713 1210.3 240.678 1220.71 240.678C1230.67 240.678 1239.46 238.713 1247.1 234.782C1254.97 230.852 1261.22 225.534 1265.84 218.83C1270.47 212.125 1272.79 204.611 1272.79 196.288H1294.66C1294.66 210.622 1291.07 223.569 1283.9 235.129C1276.95 246.689 1267.35 255.821 1255.08 262.526C1243.05 269.231 1229.28 272.583 1213.77 272.583ZM1290.49 270.849C1285.4 270.849 1281.12 269.231 1277.65 265.994C1274.41 262.526 1272.79 258.249 1272.79 253.163V98.4906C1272.79 93.1731 1274.41 88.8959 1277.65 85.6591C1281.12 82.4223 1285.4 80.8039 1290.49 80.8039C1295.82 80.8039 1300.1 82.4223 1303.34 85.6591C1306.58 88.8959 1308.2 93.1731 1308.2 98.4906V253.163C1308.2 258.249 1306.58 262.526 1303.34 265.994C1300.1 269.231 1295.82 270.849 1290.49 270.849Z" fill="white"/>
<path d="M1422.29 270.849C1410.71 270.849 1400.3 267.959 1391.04 262.179C1381.78 256.168 1374.49 248.076 1369.17 237.903C1363.85 227.731 1361.19 216.286 1361.19 203.57V38.1478C1361.19 33.0614 1362.81 28.8998 1366.05 25.6631C1369.29 22.4263 1373.45 20.8079 1378.54 20.8079C1383.64 20.8079 1387.8 22.4263 1391.04 25.6631C1394.28 28.8998 1395.9 33.0614 1395.9 38.1478V203.57C1395.9 212.818 1398.45 220.564 1403.54 226.806C1408.63 233.048 1414.88 236.169 1422.29 236.169H1434.09C1438.25 236.169 1441.73 237.788 1444.5 241.025C1447.51 244.261 1449.02 248.423 1449.02 253.509C1449.02 258.596 1447.05 262.757 1443.11 265.994C1439.41 269.231 1434.55 270.849 1428.53 270.849H1422.29ZM1345.22 117.911C1340.36 117.911 1336.42 116.524 1333.41 113.75C1330.41 110.975 1328.9 107.507 1328.9 103.346C1328.9 98.7218 1330.41 95.0226 1333.41 92.2483C1336.42 89.4739 1340.36 88.0867 1345.22 88.0867H1425.41C1430.27 88.0867 1434.2 89.4739 1437.21 92.2483C1440.22 95.0226 1441.73 98.7218 1441.73 103.346C1441.73 107.507 1440.22 110.975 1437.21 113.75C1434.2 116.524 1430.27 117.911 1425.41 117.911H1345.22Z" fill="white"/>
<path d="M1495.66 270.849C1491.27 270.849 1487.33 269.231 1483.86 265.994C1480.39 262.757 1478.65 258.48 1478.65 253.163V82.1911C1478.65 65.5448 1481.89 51.0949 1488.37 38.8414C1495.08 26.5878 1504.34 17.1087 1516.14 10.4039C1527.95 3.46798 1541.6 0 1557.11 0C1562.2 0 1566.37 1.50279 1569.61 4.50838C1573.08 7.51395 1574.81 11.3287 1574.81 15.9527C1574.81 20.3455 1573.08 24.1603 1569.61 27.397C1566.37 30.4026 1562.2 31.9054 1557.11 31.9054C1548.55 31.9054 1541.02 33.8706 1534.54 37.801C1528.06 41.7313 1522.97 47.1645 1519.27 54.1005C1515.8 61.0364 1514.06 69.244 1514.06 78.7231V253.163C1514.06 258.48 1512.44 262.757 1509.2 265.994C1505.96 269.231 1501.45 270.849 1495.66 270.849ZM1463.72 117.911C1458.86 117.911 1454.93 116.524 1451.92 113.75C1448.91 110.975 1447.41 107.507 1447.41 103.346C1447.41 98.7218 1448.91 95.0226 1451.92 92.2483C1454.93 89.4739 1458.86 88.0867 1463.72 88.0867H1549.47C1554.33 88.0867 1558.27 89.4739 1561.27 92.2483C1564.28 95.0226 1565.79 98.7218 1565.79 103.346C1565.79 107.507 1564.28 110.975 1561.27 113.75C1558.27 116.524 1554.33 117.911 1549.47 117.911H1463.72Z" fill="white"/>
<path d="M1665.14 272.583C1649.17 272.583 1634.82 269.231 1622.09 262.526C1609.59 255.59 1599.64 245.533 1592.24 232.355C1585.06 219.176 1581.47 202.992 1581.47 183.803V98.4906C1581.47 93.4043 1583.09 89.2427 1586.33 86.0059C1589.81 82.5379 1594.09 80.8039 1599.18 80.8039C1604.27 80.8039 1608.44 82.5379 1611.68 86.0059C1615.15 89.2427 1616.88 93.4043 1616.88 98.4906V183.803C1616.88 196.75 1619.31 207.501 1624.17 216.055C1629.03 224.378 1635.63 230.621 1643.96 234.782C1652.29 238.713 1661.67 240.678 1672.08 240.678C1682.03 240.678 1690.83 238.713 1698.47 234.782C1706.33 230.852 1712.58 225.534 1717.21 218.83C1721.84 212.125 1724.15 204.611 1724.15 196.288H1746.03C1746.03 210.622 1742.44 223.569 1735.26 235.129C1728.32 246.689 1718.72 255.821 1706.45 262.526C1694.41 269.231 1680.64 272.583 1665.14 272.583ZM1741.86 270.849C1736.77 270.849 1732.49 269.231 1729.01 265.994C1725.77 262.526 1724.15 258.249 1724.15 253.163V98.4906C1724.15 93.1731 1725.77 88.8959 1729.01 85.6591C1732.49 82.4223 1736.77 80.8039 1741.86 80.8039C1747.18 80.8039 1751.46 82.4223 1754.7 85.6591C1757.94 88.8959 1759.56 93.1731 1759.56 98.4906V253.163C1759.56 258.249 1757.94 262.526 1754.7 265.994C1751.46 269.231 1747.18 270.849 1741.86 270.849Z" fill="white"/>
<path d="M1849.7 270.849C1839.52 270.849 1830.49 268.075 1822.62 262.526C1814.75 256.977 1808.62 249.463 1804.22 239.984C1799.82 230.274 1797.63 219.176 1797.63 206.692V17.3399C1797.63 12.2535 1799.25 8.09195 1802.49 4.85517C1805.73 1.61839 1809.89 0 1814.98 0C1820.08 0 1824.24 1.61839 1827.48 4.85517C1830.72 8.09195 1832.34 12.2535 1832.34 17.3399V206.692C1832.34 215.246 1833.96 222.298 1837.2 227.846C1840.44 233.395 1844.61 236.169 1849.7 236.169H1858.38C1863.01 236.169 1866.71 237.788 1869.49 241.025C1872.5 244.261 1874 248.423 1874 253.509C1874 258.596 1871.8 262.757 1867.4 265.994C1863.01 269.231 1857.34 270.849 1850.39 270.849H1849.7Z" fill="white"/>
<path d="M6.86002e-08 78.7151C-0.00160238 44.0833 28.071 16.0078 62.7026 16.0061L175.574 16C244.837 15.9968 300.989 72.1445 300.993 141.408L301 310.716C301 310.851 300.995 310.985 300.987 311.118V166.504L250.829 166.504L250.828 141.411C250.826 99.8524 217.134 66.1633 175.576 66.1652L62.7051 66.1714C55.7788 66.1717 50.1648 71.7864 50.165 78.7127L50.1699 191.584C50.1719 233.143 83.8631 266.831 125.421 266.829L150.491 266.827V316.993L125.424 316.994L123.801 316.984C55.285 316.119 0.00809307 260.309 0.00490393 191.587L6.86002e-08 78.7151Z" fill="#00C599"/>
<path d="M150.495 317V266.835H163.036C176.889 266.835 188.119 278.065 188.119 291.917C188.119 305.77 176.889 317 163.036 317H150.495Z" fill="#00C599"/>
<path d="M250.821 166.504L300.987 166.504V179.046C300.987 192.898 289.757 204.128 275.904 204.128C262.051 204.128 250.821 192.898 250.821 179.046V166.504Z" fill="#00C599"/>
<path d="M263.366 241.752C284.145 241.752 300.99 258.597 300.99 279.376C300.99 300.155 284.145 317 263.366 317C242.587 317 225.743 300.155 225.743 279.376C225.743 258.597 242.587 241.752 263.366 241.752Z" fill="#00C599"/>
</svg>
